<svg width="100" height="100" viewBox="0 0 100 100" fill="none" xmlns="http://www.w3.org/2000/svg">
<path fill-rule="evenodd" clip-rule="evenodd" d="M65.2626 15.7224C57.8761 12.4311 49.6236 11.6158 41.7358 13.3979C33.848 15.1801 26.7477 19.4642 21.4936 25.6114C16.2396 31.7586 13.1134 39.4395 12.5814 47.5086C12.0493 55.5776 14.1398 63.6025 18.5412 70.3864C22.9425 77.1703 29.4189 82.3496 37.0044 85.1521C44.5898 87.9545 52.878 88.2298 60.6327 85.937C68.3874 83.6442 75.1932 78.906 80.0351 72.4292C84.877 65.9524 87.4955 58.084 87.5001 49.9974V46.1664C87.5001 43.8652 89.3656 41.9998 91.6668 41.9998C93.968 41.9998 95.8334 43.8652 95.8334 46.1664V49.9998C95.8278 59.8834 92.6274 69.5027 86.7095 77.4188C80.7917 85.335 72.4735 91.126 62.9955 93.9284C53.5175 96.7307 43.3875 96.3942 34.1164 92.969C24.8453 89.5438 16.9297 83.2134 11.5503 74.922C6.17089 66.6306 3.61579 56.8224 4.2661 46.9603C4.91641 37.0981 8.73728 27.7103 15.1589 20.1971C21.5804 12.6838 30.2587 7.44765 39.8993 5.26948C49.5399 3.09131 59.6263 4.08786 68.6543 8.11048C70.7562 9.04706 71.701 11.5103 70.7644 13.6123C69.8278 15.7142 67.3646 16.659 65.2626 15.7224Z" fill="#D57350"/>
<path fill-rule="evenodd" clip-rule="evenodd" d="M94.6114 13.7189C96.2394 15.3453 96.2407 17.9835 94.6143 19.6115L52.9477 61.3198C52.1664 62.1019 51.1064 62.5414 50.001 62.5417C48.8955 62.5419 47.8353 62.1029 47.0536 61.3213L34.5536 48.8213C32.9265 47.1941 32.9265 44.5559 34.5536 42.9287C36.1808 41.3015 38.819 41.3015 40.4462 42.9287L49.9984 52.481L88.7188 13.7219C90.3452 12.0939 92.9834 12.0925 94.6114 13.7189Z" fill="#D57350"/>
</svg>
