<svg width="222" height="52" viewBox="0 0 222 52" fill="none" xmlns="http://www.w3.org/2000/svg"><path d="M150.7 18.8c.1-1.6.1-.4 0 0z" fill="#2C2727"/><path d="M146.5 7.1V28s0 3.2-3.2 3.2h-3.2v4.2h3.2s7.4 0 7.4-7.4V16.3c0-.6.2-1.1.5-1.6l1.5-2.7c.1-.1.1-.3.1-.4V7.2c-2.1-.1-4.2-.1-6.3-.1zM4.2 9.9H0v25.4h13.7v-4.2H4.2V9.9zM33 27.2c0 2.8-2.7 4.2-5.3 4.2-2.7 0-5-1.3-5.3-4.2V9.9h-4.2v17.3c0 5.2 4.3 8.5 9.5 8.5 5.4 0 9.6-3.1 9.6-8.5V9.9H33v17.3zm23.9 2.4L47.3 9.8H43v25.5h4.2V19.4L55 35.3h4l7.3-15.6v15.6h4.2V9.8h-4.3l-9.3 19.8zm32-7c2.2-.5 4.2-2.3 4.2-5.6 0-7.3-8.5-7.2-8.5-7.2h-8.5v25.4h8.5c1.7 0 8.8-.3 8.8-7.3.1.1.3-4.3-4.5-5.3zm-8.4-8.5h4.2s4.2-.2 4.2 3.2c0 3.2-4.2 3.2-4.2 3.2h-4.2v-6.4zm4.2 17h-4.2v-6.4h4.2s4.6-.3 4.6 3.2c0 2.8-2.8 3.2-4.6 3.2zm13.5 4.2h16.9v-4.2h-12.7v-6.4H113v-4.2h-10.6v-6.4h12.7V9.9H98.2v25.4zm38.3-18c0-7.4-8.5-7.4-8.5-7.4h-8.5v4.2l4 6.4h-4v14.8h4.2V24.7h2.4l6.6 10.6h5l-6.9-11c2.6-.7 5.7-2.5 5.7-7zm-11.9-3.2h3.4s4.2 0 4.2 3.2c0 2.5-2.6 3.1-3.7 3.2l-3.9-6.4zm29 21.2h4.6l1.1-2.9h8.9l1.1 2.9h4.6L163.7 9.2l-10.1 26.1zm7.1-6.6l3.1-8.8 3.1 8.8h-6.2zm27.9-14.9c2.3 0 4.5.9 6 2.5l3-3c-2.3-2.3-5.4-3.7-9-3.7-7.4 0-12.7 5.4-12.7 13.1 0 8 5.7 13.1 12.7 13.1 3.5 0 6.7-1.4 9-3.7l-3-3c-1.5 1.5-3.7 2.5-6 2.5-4.7 0-8.4-3.4-8.4-8.8 0-5.3 3.2-9 8.4-9zm22.9 9l10.4-12.9h-5.3l-10.4 12.8V9.9H202v25.4h4.2v-7l2.4-2.7 7.9 9.7h5.5l-10.5-12.5z" fill="#2C2727"/><path d="M136.5 0c-.1 3.8.5 7.3 3.1 10.2.8-.6 1.6-1.3 2.4-1.9 1.1-.9 2.3-1.8 3.4-2.7.1-.1.3-.1.4-.1h7V.1c-5.6-.1-10.6-.1-16.3-.1zM1 42.1h1.2v3c0 .3-.1.5-.1.5.4-.7 1.2-1.1 2.1-1.1 1.7 0 2.8 1.4 2.8 3.4s-1.2 3.4-2.9 3.4c-.8 0-1.6-.4-2-1.2v.9H1v-8.9zm3 8c1 0 1.9-.8 1.9-2.3 0-1.4-.7-2.3-1.8-2.3-1 0-1.9.7-1.9 2.3-.1 1.2.5 2.3 1.8 2.3zM15.7 47h.3v-.1c0-1.1-.6-1.4-1.4-1.4-.6 0-1.3.3-1.8.6l-.5-.9c.5-.4 1.5-.8 2.4-.8 1.6 0 2.5.9 2.5 2.5V51H16v-1.1c-.4.7-1.2 1.3-2.1 1.3-1.1 0-2.1-.7-2.1-1.9 0-2 2.5-2.3 3.9-2.3zm-1.4 3.2c1.1 0 1.7-1.1 1.7-2V48h-.3c-.9 0-2.6.1-2.6 1.3 0 .4.4.9 1.2.9zm8.6-5.6h1.2v1.7c.3-.9 1.1-1.7 2-1.7h.3v1.2H26c-1.4 0-2 1.4-2 2.6V51h-1.2v-6.4h.1zm8.5-2.5h1.2v3c0 .3-.1.5-.1.5.4-.7 1.2-1.1 2.1-1.1 1.7 0 2.8 1.4 2.8 3.4s-1.2 3.4-2.9 3.4c-.8 0-1.6-.4-2-1.2v.9h-1.2v-8.9h.1zm3 8c1 0 1.9-.8 1.9-2.3 0-1.4-.7-2.3-1.8-2.3-1 0-1.9.7-1.9 2.3 0 1.2.6 2.3 1.8 2.3zm11.3-5.6c1.8 0 2.8 1.4 2.8 3 0 .2 0 .3-.1.5h-4.7c.1 1.4 1.1 2.1 2.2 2.1.7 0 1.4-.3 1.9-.7l.5.9c-.6.6-1.6.9-2.5.9-2 0-3.4-1.5-3.4-3.4 0-2 1.4-3.3 3.3-3.3zm1.5 2.6c0-1.1-.7-1.7-1.6-1.7-1 0-1.7.6-1.9 1.7h3.5zm6.5-2.5h1.2v1.7c.3-.9 1.1-1.7 2-1.7h.3v1.2h-.4c-1.4 0-2 1.4-2 2.6V51h-1.2v-6.4h.1zm8.6-2.5h1.2v3.3c0 .3-.1.5-.1.5.3-.6 1.1-1.5 2.4-1.5 1.5 0 2.2.8 2.2 2.5V51h-1.2v-3.8c0-.9-.2-1.6-1.2-1.6-1.2 0-2.1 1-2.1 2.4v3h-1.2v-8.9zm14.5 2.4c1.9 0 3.5 1.4 3.5 3.3 0 2-1.5 3.4-3.4 3.4s-3.5-1.4-3.5-3.4c-.1-1.9 1.5-3.3 3.4-3.3zm0 5.6c1.2 0 2.2-1 2.2-2.3 0-1.3-1-2.3-2.2-2.3-1.2 0-2.2 1-2.2 2.3 0 1.4 1 2.3 2.2 2.3zm8.6-5.5h1.2v3.8c0 .9.2 1.6 1.2 1.6 1.3 0 2.1-1.2 2.1-2.4v-3h1.2V51H90v-.9c0-.3.1-.5.1-.5-.3.6-1.1 1.5-2.4 1.5-1.4 0-2.2-.8-2.2-2.5v-4h-.1zm11.5 4.8c.5.5 1.2.7 1.9.7.6 0 1.1-.3 1.1-.8 0-1.2-3.3-.9-3.3-3 0-1.2 1.1-1.9 2.3-1.9.7 0 1.5.2 2.1.7l-.5.9c-.4-.4-1.1-.6-1.6-.6-.6 0-1.1.3-1.1.8 0 1.3 3.3.9 3.3 3 0 1.1-.9 1.9-2.3 1.9-.9 0-1.8-.3-2.4-.9l.5-.8zm12.3-4.9c1.8 0 2.8 1.4 2.8 3 0 .2 0 .3-.1.5h-4.7c.1 1.4 1.1 2.1 2.2 2.1.7 0 1.4-.3 1.9-.7l.5.9c-.6.6-1.6.9-2.5.9-2 0-3.4-1.5-3.4-3.4 0-2 1.4-3.3 3.3-3.3zm1.5 2.6c0-1.1-.7-1.7-1.6-1.7-1 0-1.7.6-1.9 1.7h3.5z" fill="#2C2727"/></svg>