<svg width="19" height="41" viewBox="0 0 19 41" fill="none" xmlns="http://www.w3.org/2000/svg"><path d="M11.373 8.063v23.745s0 3.635-3.635 3.635H4.103v4.772h3.635s8.407 0 8.407-8.407V18.515c0-.681.227-1.25.568-1.817l1.704-3.068c.114-.113.114-.34.114-.454V8.177c-2.386-.114-4.772-.114-7.157-.114z" fill="#D57350"/><path d="M.012 0C-.102 4.317.58 8.293 3.534 11.588c.908-.681 1.817-1.477 2.726-2.158 1.25-1.023 2.613-2.045 3.863-3.068.114-.114.34-.114.454-.114h7.953V.114C12.168 0 6.487 0 .012 0z" fill="#D57350"/></svg>