<svg viewBox="0 0 283 269" xmlns="http://www.w3.org/2000/svg" xmlns:xlink="http://www.w3.org/1999/xlink"><style>:root&gt;svg{display:none}:root&gt;svg:target{display:block}</style><svg fill="currentColor" viewBox="0 0 33 16" id="arrow-left" xmlns="http://www.w3.org/2000/svg"><path fill-rule="evenodd" clip-rule="evenodd" d="M6.657 15.071L.293 8.707a1 1 0 010-1.414L6.657.929A1 1 0 118.07 2.343L3.414 7H33v2H3.414l4.657 4.657a1 1 0 01-1.414 1.414z"/></svg><svg fill="currentColor" viewBox="0 0 33 16" id="arrow-right" xmlns="http://www.w3.org/2000/svg"><path fill-rule="evenodd" clip-rule="evenodd" d="M26.343.929l6.364 6.364a1 1 0 010 1.414l-6.364 6.364a1 1 0 01-1.414-1.414L29.586 9H0V7h29.586l-4.657-4.657A1 1 0 0126.343.93z"/></svg><svg fill="currentColor" viewBox="0 0 53 53" id="btn-diagonal-arrow" xmlns="http://www.w3.org/2000/svg"><path d="M.422 5.973l4.562-.029L4.78 44.62 48.897.502l3.223 3.224L8.003 47.843l38.675-.205.007 4.598-43.345.27-.25.037-2.958-.017.036-.036H.096L.422 5.974z"/></svg><svg fill="currentColor" viewBox="0 0 204 204" id="btn-make-an-appointment" xmlns="http://www.w3.org/2000/svg"><path fill-rule="evenodd" clip-rule="evenodd" d="M102 202c55.228 0 100-44.772 100-100S157.228 2 102 2 2 46.772 2 102s44.772 100 100 100zm0 2c56.333 0 102-45.667 102-102S158.333 0 102 0 0 45.667 0 102s45.667 102 102 102z"/><g clip-path="url(#dclip0_125_5019)"><path d="M92.43 25.945c-.437-.37-.975-.505-1.646-.404l-3.76.538-.269-1.883 3.727-.538c.671-.101 1.175-.37 1.477-.841.302-.47.403-1.076.302-1.783-.1-.672-.403-1.177-.94-1.513-.537-.336-1.141-.437-1.78-.336-1.174.168-2.45.908-3.76 2.253l-.302-2.152c1.075-1.077 2.284-1.716 3.626-1.917 1.276-.202 2.418 0 3.391.605.974.572 1.545 1.48 1.713 2.657.268 1.782.067 2.96-.538 3.464.739.235 1.242 1.345 1.511 3.262.168 1.211-.134 2.22-.906 3.06-.772.841-1.813 1.346-3.09 1.548-1.376.202-2.719-.101-4.028-.875l-.403-2.724c1.511 1.278 2.888 1.85 4.13 1.682a3.358 3.358 0 001.746-.807c.47-.438.671-1.01.57-1.648-.1-.74-.369-1.278-.772-1.648zm10.641-9.417l5.103 14.798-2.014-.034-1.813-5.246-3.895-.034-1.98 5.18-2.015-.034 5.607-14.63h1.007zm.638 7.634l-1.209-3.464-1.309 3.43 2.518.034zm9.635-4.91l-2.249 12.612-1.88-.336 2.585-14.496 9.468 1.682-2.586 14.495-1.88-.336 2.25-12.612-5.708-1.01zm23.167 4.641l-5.137 13.79-1.78-.673 3.861-10.426-11.314 7.668-1.913-.707 5.136-13.789 1.78.673-3.996 10.695 11.65-7.87 1.713.64zm8.124 17.724l.537 1.85c-2.317.437-4.298.134-5.943-.908-1.745-1.11-2.887-2.657-3.323-4.675-.47-2.018-.135-3.901.94-5.684 1.108-1.749 2.652-2.859 4.666-3.33 2.015-.47 3.895-.168 5.674.942 1.645 1.043 2.787 2.69 3.425 4.944l-1.88.337c-.504-1.682-1.343-2.893-2.552-3.666-1.309-.808-2.719-1.043-4.197-.707-1.51.337-2.652 1.178-3.491 2.49-.806 1.31-1.041 2.723-.705 4.237.335 1.513 1.175 2.657 2.484 3.497 1.175.707 2.652.942 4.365.673zm14.671-2.119l-6.077 14.428-1.477-1.379 2.149-5.112-2.854-2.657-4.935 2.523-1.477-1.379 13.899-7.13.772.706zm-4.633 6.054l1.41-3.397-3.256 1.682 1.846 1.715zm12.154 5.045l-10.039 7.937-1.175-1.514 10.039-7.937-2.115-2.69 1.477-1.177 5.439 6.894-1.478 1.177-2.148-2.69zm-7.319 11.502l12.724-7.365.974 1.648-5.54 3.228 1.981 3.43c.537.976.638 1.951.302 2.994-.336 1.042-.974 1.816-1.947 2.388-1.041.605-2.048.773-3.122.572-1.041-.236-1.847-.808-2.418-1.75l-2.954-5.145zm6.479-1.547l-3.86 2.253 1.947 3.363c.268.471.705.74 1.276.875.604.1 1.141.033 1.678-.27.47-.268.806-.706 1.007-1.277.202-.572.168-1.076-.1-1.547l-1.948-3.397zm6.178 20.718l-.738 1.782c-2.082-1.11-3.458-2.556-4.096-4.406-.705-1.95-.605-3.868.268-5.751.873-1.884 2.317-3.162 4.264-3.868s3.861-.605 5.741.27c1.88.874 3.156 2.32 3.861 4.27.638 1.817.537 3.834-.369 6.02l-1.712-.908c.637-1.614.738-3.127.268-4.439-.503-1.446-1.477-2.489-2.854-3.161-1.41-.673-2.82-.74-4.263-.202-1.444.538-2.518 1.48-3.19 2.892-.671 1.413-.738 2.825-.201 4.271.47 1.278 1.477 2.355 3.021 3.23zm-2.283 6.053l-.369-2.287 5.472 2.388c.034-.37.336-.942.873-1.716.806-1.11 1.88-1.782 3.257-2.017 1.343-.236 2.585.067 3.726.874.94.673 1.578 1.58 1.947 2.724l.672 4.103-14.504 2.422-.302-1.884 4.633-.773-.302-1.648-5.103-2.186zm13.06.807c-.134-.84-.537-1.513-1.242-1.984-.672-.505-1.444-.673-2.283-.538-.84.134-1.511.571-2.015 1.244-.503.706-.671 1.446-.537 2.287l.269 1.715 6.077-1.009-.269-1.715zm-.269 27.914c-1.645 1.278-3.492 1.816-5.54 1.581-2.047-.235-3.726-1.177-5.035-2.825-1.276-1.648-1.813-3.498-1.578-5.549.235-2.052 1.175-3.733 2.82-5.045 1.645-1.278 3.491-1.816 5.539-1.581 2.048.236 3.727 1.177 5.036 2.825 1.276 1.648 1.813 3.498 1.578 5.55-.268 2.085-1.208 3.766-2.82 5.044zm.907-5.246c.167-1.547-.202-2.926-1.176-4.137-.973-1.211-2.215-1.917-3.726-2.085-1.545-.168-2.921.202-4.13 1.177-1.208.975-1.913 2.22-2.081 3.733-.168 1.547.201 2.926 1.175 4.137.974 1.211 2.216 1.917 3.76 2.085 1.544.168 2.921-.202 4.13-1.177 1.208-.975 1.846-2.186 2.048-3.733zm-9.333 11.536l-5.775-1.884.571-1.816 13.966 4.54-.571 1.816-6.378-2.085-1.411 4.305 6.379 2.085-.57 1.816-13.967-4.54.571-1.816 5.775 1.883 1.41-4.304zm-7.219 10.19c-.738-.404-1.242-.975-1.51-1.749-.235-.773-.101-1.715.47-2.791l1.678.874c-.335.606-.436 1.076-.335 1.345.1.269.302.505.637.673l10.307 5.381-4.431 8.543-13.027-6.794.873-1.682 11.348 5.92 2.686-5.146-8.696-4.574zm1.108 20.347l-14.907-4.708 1.243-1.615 5.271 1.682 2.383-3.094-2.988-4.675 1.243-1.614 8.393 13.217-.638.807zm-6.48-4.036l3.492 1.11-1.981-3.094-1.511 1.984zm-8.191 19.002l-9.837-10.93 1.41-1.278 7.42 8.274-1.545-13.588 1.511-1.379 9.837 10.931-1.41 1.278-7.621-8.509 1.578 13.957-1.343 1.244zm7.386-1.883c-.302-.235-.504-.37-.638-.37a.933.933 0 00-.604.202c-.168.134-.235.336-.269.572 0 .134.101.336.302.672l-1.309 1.177c-.403-.639-.604-1.244-.571-1.748.034-.707.302-1.312.84-1.783.537-.471 1.141-.706 1.846-.673.537.034 1.108.269 1.679.74l-1.276 1.211zm-17.324-1.749l-3.223-5.146 1.612-1.008 7.789 12.477-1.612 1.009-3.558-5.684-3.861 2.422 3.559 5.683-1.612 1.009-7.789-12.477 1.612-1.009 3.223 5.146 3.86-2.422zm-33.237 11.939c.436.37.973.505 1.645.404l3.726-.538.269 1.883-3.727.538c-.671.101-1.175.37-1.477.841-.302.471-.403 1.076-.302 1.783.101.672.403 1.177.94 1.513.537.336 1.142.437 1.779.336 1.176-.168 2.451-.908 3.794-2.219l.302 2.152c-1.074 1.076-2.283 1.682-3.625 1.884-1.276.168-2.418-.034-3.391-.606-.974-.572-1.545-1.48-1.713-2.69-.235-1.783-.067-2.96.571-3.464-.738-.236-1.242-1.346-1.511-3.296-.168-1.211.135-2.22.907-3.061.772-.841 1.813-1.345 3.089-1.513 1.376-.202 2.719.101 4.028.908l.37 2.724c-1.511-1.312-2.888-1.85-4.13-1.682-.671.101-1.276.37-1.746.808a1.787 1.787 0 00-.57 1.648c.067.739.335 1.278.772 1.647zm-10.677 9.35l-5.103-14.798 2.014.034 1.813 5.246 3.895.068 1.98-5.18 2.015.034-5.573 14.63-1.041-.034zm-.604-7.601l1.208 3.464 1.31-3.43-2.518-.034zm-9.669 4.877l2.317-12.578 1.88.336-2.652 14.462-9.468-1.749 2.652-14.462 1.88.336-2.316 12.579 5.707 1.076zm-23.165-4.776l5.17-13.755 1.78.672-3.929 10.426 11.348-7.6 1.914.706-5.17 13.755-1.78-.672 4.029-10.695-11.65 7.836-1.712-.673zm-8.058-17.724l-.537-1.849c2.316-.404 4.297-.101 5.942.941 1.746 1.11 2.854 2.691 3.324 4.709.47 2.018.134 3.901-.974 5.683-1.108 1.749-2.652 2.859-4.7 3.33-2.014.471-3.894.135-5.674-.975-1.645-1.043-2.786-2.691-3.39-4.978l1.88-.336c.503 1.681 1.342 2.892 2.517 3.666 1.31.807 2.686 1.076 4.197.74 1.51-.337 2.686-1.178 3.492-2.456.84-1.311 1.074-2.724.738-4.237-.335-1.514-1.175-2.657-2.45-3.498-1.175-.773-2.653-1.009-4.365-.74zm-14.672 2.052l6.144-14.395 1.477 1.379-2.182 5.112 2.854 2.657 4.935-2.522 1.477 1.379-13.932 7.062-.773-.672zm4.633-6.054l-1.443 3.363 3.256-1.648-1.813-1.715zm-12.119-5.112l10.072-7.903 1.175 1.513-10.072 7.903 2.115 2.691-1.51 1.177-5.406-6.894 1.51-1.178 2.116 2.691zm7.385-11.468l-12.758 7.331-.94-1.648 5.574-3.195-1.948-3.43c-.537-.975-.637-1.951-.302-2.993.336-1.009.974-1.816 1.947-2.355 1.041-.605 2.082-.773 3.123-.538 1.04.236 1.846.807 2.417 1.749l2.887 5.079zm-6.48 1.547l3.862-2.22-1.914-3.363c-.269-.471-.671-.74-1.276-.875-.604-.134-1.141-.033-1.678.269-.47.269-.806.707-1.008 1.278-.201.572-.168 1.077.101 1.547l1.914 3.364zm-6.109-20.718l.739-1.782c2.081 1.11 3.424 2.59 4.062 4.406.705 1.95.604 3.867-.302 5.751-.907 1.883-2.317 3.161-4.264 3.834-1.947.706-3.861.605-5.741-.303-1.88-.908-3.156-2.321-3.827-4.271-.638-1.816-.504-3.834.402-6.02l1.68.908c-.672 1.614-.74 3.094-.27 4.439.504 1.446 1.478 2.523 2.854 3.195 1.377.673 2.82.74 4.264.236 1.444-.505 2.518-1.48 3.19-2.859.67-1.379.738-2.825.234-4.271-.47-1.312-1.477-2.422-3.021-3.263zm2.35-6.087l.37 2.287-5.473-2.421c-.034.369-.336.941-.873 1.715-.806 1.11-1.88 1.782-3.257 2.018-1.343.235-2.585-.068-3.726-.875-.94-.672-1.578-1.58-1.914-2.724l-.671-4.103 14.503-2.354.302 1.883-4.633.74.269 1.648 5.103 2.186zm-13.094-.841c.135.841.538 1.514 1.243 2.018.671.505 1.443.673 2.283.538a2.943 2.943 0 002.014-1.244c.504-.706.671-1.446.537-2.287l-.268-1.715-6.077.975.268 1.715zm.403-27.914c1.645-1.278 3.492-1.783 5.54-1.547 2.048.235 3.726 1.21 5.002 2.825 1.276 1.648 1.78 3.498 1.545 5.55-.235 2.05-1.21 3.732-2.82 5.01-1.646 1.278-3.492 1.783-5.54 1.547-2.048-.235-3.727-1.21-5.003-2.825-1.275-1.614-1.779-3.498-1.544-5.549.235-2.085 1.175-3.733 2.82-5.011zm-.906 5.246c-.202 1.547.201 2.926 1.141 4.137.94 1.21 2.182 1.917 3.727 2.119 1.544.202 2.92-.202 4.13-1.144 1.208-.941 1.913-2.186 2.114-3.733.202-1.547-.201-2.926-1.141-4.136-.94-1.211-2.216-1.917-3.727-2.12-1.544-.201-2.92.203-4.13 1.144-1.241.942-1.946 2.186-2.114 3.733zM28.84 79.42l5.775 1.916-.604 1.816-13.933-4.64.604-1.817 6.38 2.119 1.41-4.305-6.38-2.119.605-1.816 13.933 4.608-.605 1.816-5.74-1.917-1.444 4.338zm7.287-10.157c.738.403 1.242.975 1.477 1.748.235.774.1 1.716-.47 2.792l-1.679-.875c.336-.605.437-1.076.37-1.345-.101-.269-.303-.504-.639-.672l-10.273-5.415 4.465-8.51 12.993 6.862-.873 1.681-11.314-5.952-2.686 5.145 8.628 4.54zM35.12 48.915l14.872 4.776-1.242 1.614-5.271-1.681-2.384 3.094 2.955 4.675-1.242 1.614-8.327-13.285.638-.807zm6.445 4.07l-3.491-1.11 1.947 3.094 1.544-1.984zm8.259-19.002l9.77 10.997-1.41 1.278-7.42-8.34 1.477 13.587-1.51 1.345-9.77-10.964 1.41-1.278 7.587 8.543-1.51-13.958 1.376-1.21zm-7.386 1.85c.302.235.504.37.638.37A.937.937 0 0043.68 36c.168-.135.235-.337.269-.572 0-.135-.1-.337-.302-.673l1.31-1.177c.402.64.603 1.245.57 1.749a2.56 2.56 0 01-.84 1.782c-.537.471-1.14.707-1.846.64-.537-.034-1.108-.27-1.645-.774l1.242-1.144zm17.324 1.849l3.19 5.18-1.612 1.008-7.722-12.51 1.612-1.01 3.525 5.718 3.86-2.388-3.524-5.717 1.611-1.01 7.722 12.512-1.612 1.009-3.189-5.18-3.86 2.388z"/></g><defs><clipPath id="dclip0_125_5019"><path transform="translate(17.527 16.528)" d="M0 0h168v169H0z"/></clipPath></defs></svg><svg fill="currentColor" viewBox="0 0 19 41" id="icon-axe" xmlns="http://www.w3.org/2000/svg"><path d="M11.373 8.063v23.745s0 3.635-3.636 3.635H4.102v4.772h3.635s8.407 0 8.407-8.407V18.515c0-.681.227-1.25.568-1.817l1.704-3.068c.114-.113.114-.34.114-.454V8.177c-2.386-.114-4.772-.114-7.158-.114z"/><path d="M.012 0C-.102 4.317.58 8.293 3.534 11.588c.908-.681 1.817-1.477 2.726-2.158 1.25-1.023 2.613-2.045 3.863-3.068.114-.114.34-.114.454-.114h7.953V.114C12.168 0 6.487 0 .012 0z"/></svg><svg fill="currentColor" viewBox="0 0 31 33" id="icon-scissors" xmlns="http://www.w3.org/2000/svg"><path d="M18.468 20.217c.418-.61.928-1.314 1.551-2.114C22.537 14.873 31 0 31 0L16.175 17.55l1.604 1.897c.222.26.453.517.69.77zm-4.205 2.231l-.075-.162c-.005-.01-.346-.722-1.36-2.069a22.64 22.64 0 01-3.258 2.398 5.421 5.421 0 00-1.795 1.726l-.05.039c-.542.408-1.3.574-2.05.496a5.595 5.595 0 00-1.958.14c-1.943.491-3.182 1.964-2.959 3.52a2.8 2.8 0 00.482 1.21c.326.476.434 1.02.245 1.533l-.006.018-1.353.668c-.254.124-.093.425.202.377l2.457-.387c.057-.408.58-.68 1.094-.567a5.654 5.654 0 003.196-.225c1.628-.608 2.546-1.934 2.359-3.313a.077.077 0 000-.021c-.272-1.852.931-3.66 3.1-4.507a23.14 23.14 0 012.292-.748 25.56 25.56 0 00-.345-.077l-.218-.05zm-8.955 7.985c-1.318.078-2.568-.552-2.996-1.51-.627-1.406.631-2.87 2.568-2.986 1.318-.077 2.568.552 2.996 1.51.63 1.406-.632 2.87-2.566 2.986h-.002z"/><path d="M30.875 31.945l-1.351-.7-.006-.018c-.188-.54-.082-1.11.245-1.606.254-.38.419-.813.482-1.267.224-1.63-1.014-3.174-2.954-3.689a5.329 5.329 0 00-1.954-.146c-.75.082-1.507-.095-2.048-.52l-.05-.04a5.534 5.534 0 00-1.793-1.808 22.1 22.1 0 01-4.375-3.633L0 0s8.694 14.005 11.28 17.046c2.586 3.04 3.297 4.643 3.297 4.643 1.333.293 2.64.695 3.91 1.203 2.17.888 3.366 2.778 3.096 4.722v.023c-.187 1.446.73 2.833 2.355 3.47 1.017.4 2.128.483 3.192.238.513-.12 1.036.166 1.092.592l2.454.406c.291.046.45-.268.199-.399zM15.5 20.236c-.493 0-.893-.32-.893-.716 0-.396.4-.717.893-.717s.893.321.893.717c0 .396-.4.716-.893.716zm13.192 8.52c-.426 1.003-1.676 1.664-2.992 1.582-1.933-.121-3.19-1.655-2.564-3.128.426-1.003 1.675-1.664 2.992-1.581 1.932.12 3.19 1.654 2.564 3.127z"/></svg><svg fill="currentColor" viewBox="0 0 283 269" id="icon-star" xmlns="http://www.w3.org/2000/svg"><path d="M141.5 0l33.34 102.611h107.892l-87.286 63.417 33.34 102.611-87.286-63.417-87.286 63.417 33.34-102.611L.268 102.611H108.16L141.5 0z"/></svg></svg>